<svg width="150" height="160" viewBox="0 0 150 160" fill="none" xmlns="http://www.w3.org/2000/svg"><path d="M32.957 87.904A32.299 32.299 0 0 1 59.988 50.87c17.586-2.656 33.951 9.716 36.745 27.33l.5 3.148c2.52 15.89 7.307 24.584 11.035 29.159a3.594 3.594 0 0 1-2.206 5.827l-70.115 11.122a3.6 3.6 0 0 1-4.106-3.008 3.594 3.594 0 0 1 .206-1.852c2.13-5.504 3.994-15.253 1.473-31.142l-.563-3.55z" stroke="#fff" stroke-width="10.781" stroke-linecap="round" stroke-linejoin="round"/><path d="m56.807 124.147.563 3.549a14.374 14.374 0 1 0 28.395-4.504l-.563-3.549M95 27c9.167 2.667 27.5 13.5 27.5 35.5M98 6c15.333 4.507 46 22.817 46 60" stroke="#fff" stroke-width="10.781" stroke-linecap="round" stroke-linejoin="round"/></svg>