<svg width="169" height="159" viewBox="0 0 169 159" fill="none" xmlns="http://www.w3.org/2000/svg">
<path d="M94.1935 93.9099L93.418 169.01" stroke="#D14331" stroke-width="7.79167" stroke-linecap="round" stroke-linejoin="round"/>
<path d="M160.621 128.485V59.3354C160.621 58.3006 160.346 57.2843 159.825 56.3905C159.303 55.4966 158.554 54.7573 157.653 54.2481L96.2934 19.5667C95.4162 19.0709 94.4256 18.8103 93.418 18.8103C92.4103 18.8103 91.4198 19.0709 90.5425 19.5667L29.1831 54.2481C28.2822 54.7573 27.5327 55.4966 27.0112 56.3905C26.4897 57.2843 26.2148 58.3006 26.2148 59.3354V128.485C26.2148 129.52 26.4896 130.536 27.0112 131.43C27.5327 132.324 28.2822 133.063 29.1831 133.572L90.5425 168.254C91.4198 168.75 92.4103 169.01 93.418 169.01C94.4256 169.01 95.4162 168.75 96.2934 168.254L157.653 133.572C158.554 133.063 159.303 132.324 159.825 131.43C160.346 130.536 160.621 129.52 160.621 128.485V128.485Z" stroke="#D14331" stroke-width="7.79167" stroke-linecap="round" stroke-linejoin="round"/>
<path d="M159.818 56.384L94.1908 93.9104L27.0176 56.376" stroke="#D14331" stroke-width="7.79167" stroke-linecap="round" stroke-linejoin="round"/>
<path d="M129.309 108.893V73.8309L61.5371 35.9619" stroke="#D14331" stroke-width="7.79167" stroke-linecap="round" stroke-linejoin="round"/>
</svg>
