<svg width="83" height="84" viewBox="0 0 83 84" fill="none" xmlns="http://www.w3.org/2000/svg"><path d="m41.984 41.907-.342 33.09M71.253 57.142v-30.47a2.575 2.575 0 0 0-1.308-2.24L42.91 9.15a2.575 2.575 0 0 0-2.534 0L13.34 24.43a2.574 2.574 0 0 0-1.308 2.242v30.469a2.575 2.575 0 0 0 1.308 2.241l27.036 15.282a2.575 2.575 0 0 0 2.534 0l27.036-15.282a2.575 2.575 0 0 0 1.308-2.241v0z" stroke="#fff" stroke-width="3.433" stroke-linecap="round" stroke-linejoin="round"/><path d="M70.9 25.372 41.981 41.907 12.385 25.37" stroke="#fff" stroke-width="3.433" stroke-linecap="round" stroke-linejoin="round"/><path d="M57.456 48.51V33.06L27.594 16.374" stroke="#fff" stroke-width="3.433" stroke-linecap="round" stroke-linejoin="round"/></svg>