<svg width="170" height="159" viewBox="0 0 170 159" fill="none" xmlns="http://www.w3.org/2000/svg">
<path d="M54.514 24.647H156.37C157.959 24.647 159.483 25.2782 160.607 26.4019C161.73 27.5255 162.362 29.0495 162.362 30.6385V108.528C162.362 110.117 161.73 111.641 160.607 112.765C159.483 113.889 157.959 114.52 156.37 114.52H36.5394C34.9503 114.52 33.4264 113.889 32.3027 112.765C31.1791 111.641 30.5479 110.117 30.5479 108.528V48.6131C30.5479 42.2569 33.0728 36.161 37.5674 31.6665C42.0619 27.172 48.1578 24.647 54.514 24.647V24.647Z" stroke="#00A1CB" stroke-width="7.98871" stroke-linecap="round" stroke-linejoin="round"/>
<path d="M84.472 114.52L78.4805 156.461C78.4805 161.228 80.3742 165.8 83.7451 169.171C87.116 172.542 91.6879 174.435 96.4551 174.435C101.222 174.435 105.794 172.542 109.165 169.171C112.536 165.8 114.43 161.228 114.43 156.461L108.438 114.52" stroke="#00A1CB" stroke-width="7.98871" stroke-linecap="round" stroke-linejoin="round"/>
<path d="M30.5479 84.5623H162.362" stroke="#00A1CB" stroke-width="7.98871" stroke-linecap="round" stroke-linejoin="round"/>
<path d="M126.413 24.647V54.6046" stroke="#00A1CB" stroke-width="7.98871" stroke-linecap="round" stroke-linejoin="round"/>
</svg>
