<svg width="154" height="159" viewBox="0 0 154 159" fill="none" xmlns="http://www.w3.org/2000/svg">
<path d="M101.069 21.8824L34.993 35.0977L21.7777 101.174C21.5661 102.232 21.6189 103.326 21.9316 104.359C22.2443 105.391 22.8071 106.331 23.57 107.094L109.143 192.667C109.752 193.276 110.474 193.759 111.27 194.088C112.065 194.417 112.917 194.587 113.778 194.587C114.638 194.587 115.491 194.417 116.286 194.088C117.081 193.759 117.804 193.276 118.412 192.667L192.562 118.517C193.171 117.908 193.654 117.186 193.983 116.391C194.313 115.595 194.482 114.743 194.482 113.882C194.482 113.022 194.313 112.17 193.983 111.374C193.654 110.579 193.171 109.857 192.562 109.248L106.989 23.6748C106.226 22.9118 105.287 22.349 104.254 22.0363C103.221 21.7237 102.127 21.6708 101.069 21.8824V21.8824Z" stroke="#037841" stroke-width="8.7387" stroke-linecap="round" stroke-linejoin="round"/>
<path d="M69.3955 79.3291C74.825 79.3291 79.2265 74.9276 79.2265 69.498C79.2265 64.0685 74.825 59.667 69.3955 59.667C63.966 59.667 59.5645 64.0685 59.5645 69.498C59.5645 74.9276 63.966 79.3291 69.3955 79.3291Z" fill="#037841"/>
</svg>
