<svg width="31" height="31" viewBox="0 0 31 31" fill="none" xmlns="http://www.w3.org/2000/svg">
<g opacity="0.6">
<path d="M25.1875 3.875H5.8125C5.29864 3.875 4.80583 4.07913 4.44248 4.44248C4.07913 4.80583 3.875 5.29864 3.875 5.8125V25.1875C3.875 25.7014 4.07913 26.1942 4.44248 26.5575C4.80583 26.9209 5.29864 27.125 5.8125 27.125H25.1875C25.7014 27.125 26.1942 26.9209 26.5575 26.5575C26.9209 26.1942 27.125 25.7014 27.125 25.1875V5.8125C27.125 5.29864 26.9209 4.80583 26.5575 4.44248C26.1942 4.07913 25.7014 3.875 25.1875 3.875Z" fill="white" stroke="#E8ECEF" stroke-width="2.58333" stroke-linejoin="round"/>
<path d="M8.68066 19.2684L12.3341 15.615L15.1681 18.4418L21.959 11.625" stroke="#051C3F" stroke-width="2.58333" stroke-linecap="round" stroke-linejoin="round"/>
<path d="M16.792 11.625H21.9587V16.7917" stroke="#051C3F" stroke-width="2.58333" stroke-linecap="round" stroke-linejoin="round"/>
</g>
</svg>
