<svg xmlns="http://www.w3.org/2000/svg" width="2000" height="1898.22" viewBox="0 0 2000 1898.22"><g id="Layer_2" data-name="Layer 2"><g fill="#fff" id="Layer_38" data-name="Layer 38"><path d="M735.05 497.4a5.88 5.88 0 0 1-5.88-5.88v-287h630.48a5.88 5.88 0 0 1 0 11.76H740.93v275.24a5.88 5.88 0 0 1-5.88 5.88z"/><path d="M767 492.6a5.88 5.88 0 0 1-5.88-5.88v-255.2h563.58a5.88 5.88 0 0 1 0 11.76H772.83v243.44a5.88 5.88 0 0 1-5.83 5.88z"/><path d="M798.88 487.78a5.88 5.88 0 0 1-5.88-5.88V258.53h496.76a5.88 5.88 0 1 1 0 11.75h-485V481.9a5.88 5.88 0 0 1-5.88 5.88z"/><path d="M830.78 483a5.88 5.88 0 0 1-5.88-5.88V285.55h429.93a5.88 5.88 0 1 1 0 11.76H836.66V477.1a5.88 5.88 0 0 1-5.88 5.9z"/><path d="M862.69 478.15a5.88 5.88 0 0 1-5.88-5.88V312.55h363.09a5.88 5.88 0 0 1 0 11.76H868.56v148a5.87 5.87 0 0 1-5.87 5.84z"/><path d="M894.61 473.35a5.88 5.88 0 0 1-5.88-5.88V339.55h296.21a5.88 5.88 0 0 1 0 11.76H900.49v116.16a5.88 5.88 0 0 1-5.88 5.88z"/><path d="M926.52 468.53a5.88 5.88 0 0 1-5.88-5.88v-96.07H1150a5.88 5.88 0 1 1 0 11.75H932.39v84.32a5.87 5.87 0 0 1-5.87 5.88z"/><g><path d="M735.05 497.4a5.88 5.88 0 0 1-.88-11.69L926 456.83l224.13 5.56a5.87 5.87 0 0 1 5.74 6c-.08 3.25-2.63 5.3-6 5.74l-223.12-5.62-190.83 28.83a6.47 6.47 0 0 1-.87.06zM735.43 520.12a5.88 5.88 0 0 1-.56-11.74L926 490.11l186.6 4.66a5.87 5.87 0 0 1 5.74 6c-.08 3.25-3 5.2-6 5.74l-185.9-4.68L736 520.1a5.06 5.06 0 0 1-.57.02zM735.78 542.82a5.88 5.88 0 0 1-.23-11.76l190.37-7.65 149.1 3.75a5.86 5.86 0 0 1 5.74 6c-.08 3.25-2.55 5.11-6 5.74L926 535.17l-190 7.65zM1037.34 571.28h-.14l-111.56-2.81-189.6-3a5.88 5.88 0 0 1 .1-11.76h.1l189.64 3 111.59 2.81a5.88 5.88 0 0 1-.13 11.76zM999.77 603.66h-.14l-74.37-1.87-189.16-13.58a5.9 5.9 0 0 1-5.46-6.29c.22-3.27 3.09-5.28 6.3-5.46L925.82 590l74.09 1.87a5.88 5.88 0 0 1-.14 11.76zM962.21 636h-.14l-37.19-.93-188.76-24.2a5.87 5.87 0 0 1-5.08-6.59 5.72 5.72 0 0 1 6.6-5.08l188.14 24.19 36.57.89a5.88 5.88 0 0 1-.14 11.76zM924.64 668.45a4.81 4.81 0 0 1-1.07-.12l-187.39-34.82a5.88 5.88 0 0 1 2.16-11.51l187.38 34.82a5.89 5.89 0 0 1-1.08 11.68z"/></g><g><path d="M926.52 1061.35a5.86 5.86 0 0 1-5.88-5.88l.36-392.92a5.87 5.87 0 0 1 5.87-5.88 5.86 5.86 0 0 1 5.88 5.88l-.38 392.92a5.87 5.87 0 0 1-5.85 5.88zM894.61 1025a5.86 5.86 0 0 1-5.88-5.88l.32-362.35a5.88 5.88 0 0 1 5.88-5.88 5.86 5.86 0 0 1 5.88 5.88l-.32 362.35a5.88 5.88 0 0 1-5.88 5.88zM862.69 988.57a5.86 5.86 0 0 1-5.88-5.88l.26-331.76a5.88 5.88 0 0 1 5.88-5.88 5.86 5.86 0 0 1 5.87 5.88l-.26 331.76a5.87 5.87 0 0 1-5.87 5.88zM830.78 952.18a5.86 5.86 0 0 1-5.88-5.88l.2-301.17a5.88 5.88 0 0 1 5.88-5.88 5.86 5.86 0 0 1 5.88 5.88l-.2 301.17a5.88 5.88 0 0 1-5.88 5.88zM798.88 915.79a5.86 5.86 0 0 1-5.88-5.88l.12-270.58a5.88 5.88 0 0 1 5.88-5.88 5.86 5.86 0 0 1 5.87 5.88l-.11 270.58a5.88 5.88 0 0 1-5.88 5.88zM767 879.4a5.86 5.86 0 0 1-5.88-5.88l.08-240a5.88 5.88 0 0 1 5.88-5.88 5.86 5.86 0 0 1 5.88 5.88l-.08 240a5.88 5.88 0 0 1-5.88 5.88zM735.05 843a5.87 5.87 0 0 1-5.88-5.87v-209.4a5.88 5.88 0 0 1 11.76 0v209.41a5.87 5.87 0 0 1-5.88 5.86z"/></g><g><path d="M483.68 374.59h-58.71V0h374.56v58.71H483.68v315.88zM799.53 1177.92H424.97V803.34h58.71v315.88h315.85v58.7zM1575.03 374.59h-58.7V58.71h-315.86V0h374.56v374.59zM1575.03 1177.92h-374.56v-58.7h315.86V803.34h58.7v374.58z"/></g><g><path d="M107.47 1527h185.94v58.62H107.47a129.45 129.45 0 0 0-26.56 2.75q-40 8.85-68.09 39.39-3 3.66-6.1 7.63a.86.86 0 0 0-.31.61l-.61.61q-2.74 3.68-5.19 7.64a.27.27 0 0 0-.3.3.28.28 0 0 1-.31.31v-10.38a103.89 103.89 0 0 1 14.5-54 109.84 109.84 0 0 1 38.93-38.93 104 104 0 0 1 54.04-14.55zm-49.15 90a3.79 3.79 0 0 0 1.52-.91 1.26 1.26 0 0 0 .92-.31h.3a8.11 8.11 0 0 1 1.84-.92 45.67 45.67 0 0 0-4.28 19.55v263.79H0v-185.61a107.16 107.16 0 0 1 6.11-35.72 118.13 118.13 0 0 1 6.41-14.66 115.53 115.53 0 0 1 15-21.37 35.44 35.44 0 0 1 4-4 2 2 0 0 1 .91-.92.9.9 0 0 1 .31-.61.88.88 0 0 1 .61-.3 10.34 10.34 0 0 1 2.14-2.14 4.71 4.71 0 0 1 1.22-.92l1.22-1.22a11.78 11.78 0 0 0 1.83-1.53 5 5 0 0 1 1.22-.91l3.06-2.44a14.63 14.63 0 0 1 1.52-.92l.61-.61a.92.92 0 0 1 .61-.31 11.74 11.74 0 0 0 1.84-1.52 3.81 3.81 0 0 0 1.52-.92 2.37 2.37 0 0 0 .92-.3.86.86 0 0 1 .61-.31l1.83-1.22a3.92 3.92 0 0 1 1.53-.92l.61-.3a.9.9 0 0 1 .61-.31 18.74 18.74 0 0 0 2.07-1.21zm79.07 89.46v.61a1.27 1.27 0 0 0-.3.92 32.87 32.87 0 0 0-.31 4.58 37.88 37.88 0 0 0 .31 4.58 2.34 2.34 0 0 0 .3.91v.31a15.78 15.78 0 0 0 .31 3 5.16 5.16 0 0 1 .3 1.63 16.82 16.82 0 0 0 .91 3 2.6 2.6 0 0 0 .31 1.22c.4 1.22.81 2.34 1.22 3.36v.31l.3.61c.61 1.42 1.22 2.75 1.84 4a.27.27 0 0 0 .3.3.84.84 0 0 0 .31.61 11.58 11.58 0 0 0 1.52 2.75 2 2 0 0 0 .92.92v.3a.9.9 0 0 1 .3.61 3.73 3.73 0 0 0 .61.92H78.16v-58.62h68.7l-.61.61a.88.88 0 0 0-.31.61.27.27 0 0 0-.3.3 3.65 3.65 0 0 0-.61.92l-1.83 2.75v.61c-.21 0-.31.1-.31.3-.81 1.43-1.53 2.75-2.14 4v.61l-.3.31-1.22 3.36a1.21 1.21 0 0 1-.31.91v.61a21.94 21.94 0 0 1-.91 2.75 3.47 3.47 0 0 1-.31 1.53 15.78 15.78 0 0 0-.31 3.01zm69.31-14.65q8.55 9.15 8.55 20.76a28 28 0 0 1-8.7 20.76 28.41 28.41 0 0 1-20.61 8.55 28.92 28.92 0 0 1-20.76-8.55q-8.55-9.16-8.55-20.76a29.19 29.19 0 0 1 29.31-29.31q11.61.02 20.76 8.57zM653.17 1643.28a.88.88 0 0 1-.61.31.27.27 0 0 1-.3.3 48.18 48.18 0 0 0 .91-9.46 49 49 0 0 0-48.85-48.86h-263.8V1527h263.8q28.39 0 48.4 20t20 48.39q0 3.36-.3 6.72v1.53a1.21 1.21 0 0 0-.31.91v.31c-.2 1.42-.4 2.75-.61 4a5.84 5.84 0 0 0-.3 1.83 1.22 1.22 0 0 0-.31.92.9.9 0 0 1-.3.61 29.94 29.94 0 0 1-.92 3.36l-.61 1.83a.88.88 0 0 1-.31.61v.61l-1.22 3a7.8 7.8 0 0 1-.91 1.83 2.26 2.26 0 0 1-.31.92l-.3.31c-.41 1-.82 1.93-1.22 2.74a19.37 19.37 0 0 1-1.23 2.14.88.88 0 0 0-.3.61l-1.83 3a12.42 12.42 0 0 0-1.53 1.84.88.88 0 0 1-.31.61c-.61.81-1.32 1.73-2.13 2.74a21.39 21.39 0 0 0-1.83 2.14 32.36 32.36 0 0 1-2.46 2.77zm-254 108.39v146.55h-58.65v-214.94h263.8a38.22 38.22 0 0 0 4.89-.31h.3a15.87 15.87 0 0 0 3.06-.3h1.22a4.86 4.86 0 0 1 1.52-.31 10.27 10.27 0 0 0 2.45-.3c1-.21 2.13-.41 3.35-.61a2.8 2.8 0 0 0 1.23-.31 2.66 2.66 0 0 0 1.22-.31 10.19 10.19 0 0 0 2.44-.3 28.82 28.82 0 0 1 3.36-.92l1.22-.61a2.74 2.74 0 0 0 1.22-.3c.81-.21 1.53-.41 2.14-.61 1.22-.41 2.34-.82 3.36-1.22l2.44-1.23a16.12 16.12 0 0 0 2.14-.91 12.11 12.11 0 0 0 2.74-1.53l2.45-1.22a7.48 7.48 0 0 0 1.83-.92l3.05-1.83a3.94 3.94 0 0 1 .92-.61 4.45 4.45 0 0 1 1.22-.91l1.83-1.23a22.25 22.25 0 0 0 2.44-2.13l1.22-.61a2 2 0 0 1 .92-.92 12.37 12.37 0 0 0 1.83-1.53 23.28 23.28 0 0 0 2.45-2.13l1.83-1.84a5.24 5.24 0 0 0 1.52-1.52 23.21 23.21 0 0 0 2.14-2.44l.92-.92.91-1.22 1.53-1.53a31.24 31.24 0 0 0 1.83-2.75 3.85 3.85 0 0 1 .61-.91 5.07 5.07 0 0 0 .92-1.22l1.22-1.84a32.55 32.55 0 0 1 1.83-2.74l1.22-2.45 1.22-1.83a21.74 21.74 0 0 1 1.53-3 2.6 2.6 0 0 1 .31-1.22l.61-1.22a6.91 6.91 0 0 0 .91-2.14c.41-1 .82-2.14 1.22-3.36l.61-1.22a2.73 2.73 0 0 1 .31-1.22l.61-1.83 1.22-4.28v-.91a2.67 2.67 0 0 0 .31-1.23l.61-1.83c.4-2.24.71-4.37.91-6.41v-.92a2.6 2.6 0 0 0 .31-1.22q.3-4.28.3-8.55 0-3.66-.3-7v-1.22q-.3-3-.92-6.41v-1.22q-.6-3.06-1.52-6.41v-.31l-1.84-6.11-.3-.3v-.41q24.42 29.63 24.42 68.4a103.88 103.88 0 0 1-14.5 54 109.76 109.76 0 0 1-38.93 38.93 103.92 103.92 0 0 1-54 14.5H408.92a9.9 9.9 0 0 0-9.77 9.77zM702 1898.22h-73.25l-102.59-136.78h73.28zM815 1898.22h-59V1527h59zM932.25 1898.22h-58.62v-345.93l58.62 97.71zm171.59 0L881 1527h55.56l222.89 371.27zm4.28-371.27h58.62v345.93l-58.62-97.7zM1236.35 1898.22V1527H1295v371.27zM1504.42 1527h89.77l-230.82 230.52-44.58-44.88zm-127 244.26 44.88-44.88 171.9 171.89h-89.77zM2000 1585.57h-268.68v.31h-.32a15.77 15.77 0 0 0-3 .3h-2.75a9.72 9.72 0 0 1-2.44.31 27 27 0 0 0-3.36.92h-1.22a3.48 3.48 0 0 1-1.53.3c-.61.2-1.32.41-2.14.61a16.22 16.22 0 0 0-3.35.92 2.78 2.78 0 0 1-1.23.3l-1.22.61c-.81.21-1.52.41-2.13.61q-1.85.62-3.36 1.23l-1.22.61a2.78 2.78 0 0 1-1.23.3 6.87 6.87 0 0 1-2.13.92l-2.75 1.52-2.44 1.23a22.33 22.33 0 0 1-2.14 1.22 31.24 31.24 0 0 1-2.75 1.83 3.57 3.57 0 0 1-.91.61l-1.23.61-1.83 1.22a13.79 13.79 0 0 1-2.75 2.14l-.91.91a3.65 3.65 0 0 1-.92.62 12.27 12.27 0 0 1-1.83 1.52l-3.36 3.36a3.57 3.57 0 0 1-.91.61 12.37 12.37 0 0 0-1.53 1.83 23.42 23.42 0 0 0-2.14 2.45 1.91 1.91 0 0 0-.91.91l-.92.92-1.53 1.83a31.24 31.24 0 0 0-1.83 2.75l-.91.91-.62 1.22-1.22 1.84a32.55 32.55 0 0 0-1.83 2.74l-.61 1.23a3.4 3.4 0 0 0-.61.91 19.41 19.41 0 0 1-1.22 2.14 21.74 21.74 0 0 1-1.53 3 2.78 2.78 0 0 0-.3 1.22l-.61 1.22a7.72 7.72 0 0 0-.92 1.84 12.82 12.82 0 0 0-1.22 3.66l-.61 1.22a2.6 2.6 0 0 1-.31 1.22l-.61 1.83c-.4 1.43-.81 2.75-1.22 4a131.49 131.49 0 0 1-.61 2.45 5.84 5.84 0 0 1-.3 1.83 58.82 58.82 0 0 0-.92 6.41 2.31 2.31 0 0 1-.31.92v.91q-.3 4.59-.3 8.86c0 2.24.1 4.47.3 6.71v1.23a62.16 62.16 0 0 0 .92 6.41v1.22a60.1 60.1 0 0 0 1.53 6.41v.61q.92 3.06 1.83 5.8c0 .21.1.31.3.31v.3q-24.42-29.31-24.42-68.08a103.89 103.89 0 0 1 14.5-54 109.84 109.84 0 0 1 38.93-38.93 103.94 103.94 0 0 1 54-14.5H2000zm0 205.18a103.85 103.85 0 0 1-14.5 54 109.76 109.76 0 0 1-38.93 38.93 103.88 103.88 0 0 1-54 14.5h-263.8v-58.58h263.8a40.08 40.08 0 0 0 4.88-.3 17.46 17.46 0 0 0 3.36-.31h1.19a5.1 5.1 0 0 0 1.53-.3h2.14a24.51 24.51 0 0 0 3.66-.92h1.22a2.76 2.76 0 0 1 1.22-.31l2.44-.61a26.81 26.81 0 0 0 3.36-.91 2.66 2.66 0 0 1 1.22-.31l1.23-.61c.81-.2 1.52-.41 2.13-.61 1.22-.41 2.34-.81 3.36-1.22l1.22-.61a2.79 2.79 0 0 1 1.22-.31 7.86 7.86 0 0 1 1.84-.91 21.21 21.21 0 0 1 3-1.53l2.44-1.22 1.83-1.22a31.24 31.24 0 0 0 2.75-1.83l2.44-1.22a12.42 12.42 0 0 0 1.84-1.53l2.44-1.83a4.66 4.66 0 0 1 1.22-.92l.92-.91 1.83-1.23 4.27-4.27a5.57 5.57 0 0 0 1.53-1.53 23.36 23.36 0 0 0 2.14-2.44l.91-.92a2 2 0 0 1 .92-.91 12.27 12.27 0 0 1 1.52-1.83 30.51 30.51 0 0 0 1.84-2.75 3.73 3.73 0 0 0 .61-.92 4.66 4.66 0 0 0 .91-1.22l1.22-1.83a29.15 29.15 0 0 0 1.84-2.75l.61-1.22a3.4 3.4 0 0 1 .61-.92 18.55 18.55 0 0 1 1.22-2.13l1.22-3.06 1.22-2.44a7.85 7.85 0 0 0 .92-1.83l1.22-3.66a2.78 2.78 0 0 0 .3-1.23l.61-1.22.62-1.83a36.76 36.76 0 0 0 .91-4 2.63 2.63 0 0 0 .31-1.22 2.74 2.74 0 0 0 .3-1.22l.61-1.83a59.54 59.54 0 0 0 .92-6.41v-.92a2.74 2.74 0 0 0 .3-1.22q.31-4.28.31-8.55 0-3.36-.31-6.72v-1.22a58.87 58.87 0 0 0-.91-6.41v-1.22a59.53 59.53 0 0 0-1.53-6.41v-.61c-.61-2-1.22-4-1.83-5.81l-.31-.3v-.61Q2000 1752 2000 1790.75zm-107.47-107.47q28.4 0 48.39 20t20 48.39q0 3.66-.31 7a2.71 2.71 0 0 1-.3 1.22v1.22l-.61 4.28a10.33 10.33 0 0 0-.61 1.53v.91a.86.86 0 0 0-.31.61 16.5 16.5 0 0 1-.91 3.36l-.62 1.83a2.37 2.37 0 0 1-.3.92v.3l-1.22 3.06a7.85 7.85 0 0 1-.92 1.83l-.3.91-.31.31-1.22 3-1.22 1.84a.88.88 0 0 0-.31.61h-.3a22.29 22.29 0 0 1-1.53 3 7.9 7.9 0 0 0-1.52 2.14c-.21 0-.31.1-.31.3-.81 1-1.53 1.94-2.14 2.75a20.32 20.32 0 0 1-1.83 2.14l-.3.3a23.51 23.51 0 0 1-2.14 2.44.88.88 0 0 1-.61.31.86.86 0 0 1-.31.61 53 53 0 0 0 .92-9.77 49 49 0 0 0-48.85-48.85H1736.2q-28.4 0-48.39-20t-20-48.39q0-3.67.3-7v-1.22a2.23 2.23 0 0 0 .31-.91v-.26l.61-4.27a3.47 3.47 0 0 0 .31-1.53 2.37 2.37 0 0 0 .3-.92.88.88 0 0 1 .31-.61 16.22 16.22 0 0 1 .91-3.35 3.34 3.34 0 0 1 .61-1.84 2.4 2.4 0 0 1 .31-.91v-.31l1.22-3a7.48 7.48 0 0 1 .92-1.83 1.26 1.26 0 0 1 .3-.92v-.3a21.84 21.84 0 0 0 1.53-3.06l1.22-1.83a.88.88 0 0 1 .3-.61v-.31a30.29 30.29 0 0 0 1.84-2.74l1.52-2.14.31-.31a14 14 0 0 1 2.14-2.74 19.35 19.35 0 0 1 1.83-2.14v-.33l3.36-3.35a52.89 52.89 0 0 0-.92 9.77 49 49 0 0 0 48.85 48.85z"/></g></g></g></svg>